<svg id="egNR6udXchk1" xmlns="http://www.w3.org/2000/svg" xmlns:xlink="http://www.w3.org/1999/xlink" viewBox="0 0 512 512" shape-rendering="geometricPrecision" text-rendering="geometricPrecision"><style><![CDATA[#egNR6udXchk2_to {animation: egNR6udXchk2_to__to 2000ms linear infinite normal forwards}@keyframes egNR6udXchk2_to__to { 0% {offset-distance: 0%;animation-timing-function: cubic-bezier(0,0,0.58,1)} 25% {offset-distance: 49.999996%;animation-timing-function: cubic-bezier(0.42,0,1,1)} 55% {offset-distance: 99.999992%} 65% {offset-distance: 100%} 100% {offset-distance: 100%}} #egNR6udXchk2_ts {animation: egNR6udXchk2_ts__ts 2000ms linear infinite normal forwards}@keyframes egNR6udXchk2_ts__ts { 0% {transform: scale(0.773965,0.773965);animation-timing-function: cubic-bezier(0,0,0.58,1)} 25% {transform: scale(0.725599,0.773965);animation-timing-function: cubic-bezier(0.42,0,1,1)} 50% {transform: scale(0.773965,0.773965)} 60% {transform: scale(0.773965,0.738605)} 70% {transform: scale(0.773965,0.773965)} 100% {transform: scale(0.773965,0.773965)}}]]></style><defs><linearGradient id="egNR6udXchk2-fill" x1="0" y1="0.5" x2="1" y2="0.5" spreadMethod="pad" gradientUnits="objectBoundingBox" gradientTransform="translate(0 0)"><stop id="egNR6udXchk2-fill-0" offset="0%" stop-color="#16a34a"/><stop id="egNR6udXchk2-fill-1" offset="100%" stop-color="#65a30d"/></linearGradient></defs><g id="egNR6udXchk2_to" style="offset-path:path('M255.999989,511.999978C255.999989,511.999978,255.999989,358.825509,255.999989,358.825509C255.999989,358.825509,255.999989,511.999978,255.999989,511.999978Q256,512,256,512');offset-rotate:0deg"><g id="egNR6udXchk2_ts" transform="scale(0.773965,0.773965)"><path d="M414.39,97.74C357.896429,40.687495,275.188299,18.234754,197.599954,38.888099s-138.188511,81.253511-158.841855,158.841855s1.799396,160.296475,58.851901,216.790046c56.493571,57.052505,139.201701,79.505246,216.790046,58.851901s138.188511-81.253511,158.841855-158.841855-1.799396-160.296475-58.851901-216.790046ZM64,256.13c-.007178-16.992887,2.245912-33.911239,6.7-50.31c7.34,15.8,18,29.45,25.25,45.66c9.37,20.84,34.53,15.06,45.64,33.32c9.86,16.21-.67,36.71,6.71,53.67c5.36,12.31,18,15,26.72,24c8.91,9.08,8.72,21.52,10.08,33.36c1.534637,13.911139,4.023839,27.700316,7.45,41.27c0,.1,0,.21.08.31C117.8,411.13,64,339.8,64,256.13Zm192,192c-10.722571-.003419-21.426231-.89985-32-2.68.11-2.71.16-5.24.43-7c2.43-15.9,10.39-31.45,21.13-43.35c10.61-11.74,25.15-19.68,34.11-33c8.78-13,11.41-30.5,7.79-45.69-5.33-22.44-35.82-29.93-52.26-42.1-9.45-7-17.86-17.82-30.27-18.7-5.72-.4-10.51.83-16.18-.63-5.2-1.35-9.28-4.15-14.82-3.42-10.35,1.36-16.88,12.42-28,10.92-10.55-1.41-21.42-13.76-23.82-23.81-3.08-12.92,7.14-17.11,18.09-18.26c4.57-.48,9.7-1,14.09.68c5.78,2.14,8.51,7.8,13.7,10.66c9.73,5.34,11.7-3.19,10.21-11.83-2.23-12.94-4.83-18.21,6.71-27.12c8-6.14,14.84-10.58,13.56-21.61-.76-6.48-4.31-9.41-1-15.86c2.51-4.91,9.4-9.34,13.89-12.27c11.59-7.56,49.65-7,34.1-28.16-4.57-6.21-13-17.31-21-18.83-10-1.89-14.44,9.27-21.41,14.19-7.2,5.09-21.22,10.87-28.43,3-9.7-10.59,6.43-14.06,10-21.46c1.65-3.45,0-8.24-2.78-12.75q5.41-2.28,11-4.23c2.335522,1.725001,5.106113,2.763972,8,3c6.69.44,13-3.18,18.84,1.38c6.48,5,11.15,11.32,19.75,12.88c8.32,1.51,17.13-3.34,19.19-11.86c1.25-5.18,0-10.65-1.2-16c37.400182.215198,73.912661,11.415835,105,32.21-2-.76-4.39-.67-7.34.7-6.07,2.82-14.67,10-15.38,17.12-.81,8.08,11.11,9.22,16.77,9.22c8.5,0,17.11-3.8,14.37-13.62-1.19-4.26-2.81-8.69-5.42-11.37c6.274085,4.35358,12.284624,9.075192,18,14.14-.09.09-.18.17-.27.27-5.76,6-12.45,10.75-16.39,18.05-2.78,5.14-5.91,7.58-11.54,8.91-3.1.73-6.64,1-9.24,3.08-7.24,5.7-3.12,19.4,3.74,23.51c8.67,5.19,21.53,2.75,28.07-4.66c5.11-5.8,8.12-15.87,17.31-15.86c4.045941-.008411,7.932672,1.575737,10.82,4.41c3.8,3.94,3.05,7.62,3.86,12.54c1.43,8.74,9.14,4,13.83-.41c3.418629,6.084199,6.503201,12.350153,9.24,18.77-5.16,7.43-9.26,15.53-21.67,6.87-7.43-5.19-12-12.72-21.33-15.06-8.15-2-16.5.08-24.55,1.47-9.15,1.59-20,2.29-26.94,9.22-6.71,6.68-10.26,15.62-17.4,22.33-13.81,13-19.64,27.19-10.7,45.57c8.6,17.67,26.59,27.26,46,26c19.07-1.27,38.88-12.33,38.33,15.38-.2,9.81,1.85,16.6,4.86,25.71c2.79,8.4,2.6,16.54,3.24,25.21.608487,10.152532,2.195852,20.222591,4.74,30.07-36.322724,46.766335-92.21488,74.127397-151.43,74.13Z" transform="translate(-255.999973,-480.913911)" fill="url(#egNR6udXchk2-fill)"/></g></g></svg>